<mxfile host="app.diagrams.net" modified="2021-06-14T22:35:58.033Z" agent="5.0 (Windows NT 10.0; Win64; x64) AppleWebKit/537.36 (KHTML, like Gecko) Chrome/91.0.0.0 Safari/537.36 Edg/75.0.131.0" etag="9glqi7qV6qE8aEJf_elB" version="14.7.8" type="github">
  <diagram id="C5RBs43oDa-KdzZeNtuy" name="Page-1">
    <mxGraphModel dx="1039" dy="588" grid="1" gridSize="10" guides="1" tooltips="1" connect="1" arrows="1" fold="1" page="1" pageScale="1" pageWidth="1200" pageHeight="1600" math="0" shadow="0">
      <root>
        <mxCell id="WIyWlLk6GJQsqaUBKTNV-0" />
        <mxCell id="WIyWlLk6GJQsqaUBKTNV-1" parent="WIyWlLk6GJQsqaUBKTNV-0" />
        <mxCell id="Ja9dmKskK8c7EPUnNLp3-39" value="" style="group;fillColor=#fff2cc;rounded=0;glass=0;sketch=1;strokeColor=#d6b656;perimeterSpacing=1;shadow=0;fillStyle=dots;" vertex="1" connectable="0" parent="WIyWlLk6GJQsqaUBKTNV-1">
          <mxGeometry x="10" y="10" width="290" height="540.03" as="geometry" />
        </mxCell>
        <mxCell id="WIyWlLk6GJQsqaUBKTNV-3" value="POST /login" style="rounded=1;whiteSpace=wrap;html=1;fontSize=12;glass=0;strokeWidth=1;shadow=0;fillColor=#dae8fc;strokeColor=#6c8ebf;" parent="Ja9dmKskK8c7EPUnNLp3-39" vertex="1">
          <mxGeometry width="120" height="40" as="geometry" />
        </mxCell>
        <mxCell id="WIyWlLk6GJQsqaUBKTNV-6" value="Body OK?" style="rhombus;whiteSpace=wrap;html=1;shadow=0;fontFamily=Helvetica;fontSize=12;align=center;strokeWidth=1;spacing=6;spacingTop=-4;fillColor=#f5f5f5;strokeColor=#666666;fontColor=#333333;" parent="Ja9dmKskK8c7EPUnNLp3-39" vertex="1">
          <mxGeometry x="10" y="70" width="100" height="80" as="geometry" />
        </mxCell>
        <mxCell id="Ja9dmKskK8c7EPUnNLp3-29" value="" style="edgeStyle=orthogonalEdgeStyle;rounded=0;sketch=0;orthogonalLoop=1;jettySize=auto;html=1;fillColor=#dae8fc;strokeColor=#6c8ebf;" edge="1" parent="Ja9dmKskK8c7EPUnNLp3-39" source="WIyWlLk6GJQsqaUBKTNV-3" target="WIyWlLk6GJQsqaUBKTNV-6">
          <mxGeometry relative="1" as="geometry" />
        </mxCell>
        <mxCell id="WIyWlLk6GJQsqaUBKTNV-7" value="Reject 400" style="rounded=1;whiteSpace=wrap;html=1;fontSize=12;glass=0;strokeWidth=1;shadow=0;fillColor=#f8cecc;strokeColor=#b85450;" parent="Ja9dmKskK8c7EPUnNLp3-39" vertex="1">
          <mxGeometry x="150" y="90" width="120" height="40" as="geometry" />
        </mxCell>
        <mxCell id="Ja9dmKskK8c7EPUnNLp3-27" value="" style="edgeStyle=orthogonalEdgeStyle;rounded=0;sketch=0;orthogonalLoop=1;jettySize=auto;html=1;fillColor=#f8cecc;strokeColor=#b85450;" edge="1" parent="Ja9dmKskK8c7EPUnNLp3-39" source="WIyWlLk6GJQsqaUBKTNV-6" target="WIyWlLk6GJQsqaUBKTNV-7">
          <mxGeometry relative="1" as="geometry" />
        </mxCell>
        <mxCell id="WIyWlLk6GJQsqaUBKTNV-10" value="User in DB?" style="rhombus;whiteSpace=wrap;html=1;shadow=0;fontFamily=Helvetica;fontSize=12;align=center;strokeWidth=1;spacing=6;spacingTop=-4;fillColor=#f5f5f5;strokeColor=#666666;fontColor=#333333;" parent="Ja9dmKskK8c7EPUnNLp3-39" vertex="1">
          <mxGeometry x="10" y="180" width="100" height="80" as="geometry" />
        </mxCell>
        <mxCell id="Ja9dmKskK8c7EPUnNLp3-26" value="" style="edgeStyle=orthogonalEdgeStyle;rounded=0;sketch=0;orthogonalLoop=1;jettySize=auto;html=1;fillColor=#d5e8d4;strokeColor=#82b366;" edge="1" parent="Ja9dmKskK8c7EPUnNLp3-39" source="WIyWlLk6GJQsqaUBKTNV-6" target="WIyWlLk6GJQsqaUBKTNV-10">
          <mxGeometry relative="1" as="geometry" />
        </mxCell>
        <mxCell id="WIyWlLk6GJQsqaUBKTNV-11" value="Grant access" style="rounded=1;whiteSpace=wrap;html=1;fontSize=12;glass=0;strokeWidth=1;shadow=0;fillColor=#d5e8d4;strokeColor=#82b366;" parent="Ja9dmKskK8c7EPUnNLp3-39" vertex="1">
          <mxGeometry y="500.03" width="120" height="40" as="geometry" />
        </mxCell>
        <mxCell id="WIyWlLk6GJQsqaUBKTNV-12" value="Reject 404" style="rounded=1;whiteSpace=wrap;html=1;fontSize=12;glass=0;strokeWidth=1;shadow=0;fillColor=#f8cecc;strokeColor=#b85450;" parent="Ja9dmKskK8c7EPUnNLp3-39" vertex="1">
          <mxGeometry x="150" y="200" width="120" height="40" as="geometry" />
        </mxCell>
        <mxCell id="Ja9dmKskK8c7EPUnNLp3-28" value="" style="edgeStyle=orthogonalEdgeStyle;rounded=0;sketch=0;orthogonalLoop=1;jettySize=auto;html=1;fillColor=#f8cecc;strokeColor=#b85450;" edge="1" parent="Ja9dmKskK8c7EPUnNLp3-39" source="WIyWlLk6GJQsqaUBKTNV-10" target="WIyWlLk6GJQsqaUBKTNV-12">
          <mxGeometry relative="1" as="geometry" />
        </mxCell>
        <mxCell id="Ja9dmKskK8c7EPUnNLp3-31" value="" style="edgeStyle=orthogonalEdgeStyle;rounded=0;sketch=0;orthogonalLoop=1;jettySize=auto;html=1;fillColor=#d5e8d4;strokeColor=#82b366;" edge="1" parent="Ja9dmKskK8c7EPUnNLp3-39" source="Ja9dmKskK8c7EPUnNLp3-2" target="WIyWlLk6GJQsqaUBKTNV-11">
          <mxGeometry relative="1" as="geometry" />
        </mxCell>
        <mxCell id="Ja9dmKskK8c7EPUnNLp3-2" value="PWD OK?" style="rhombus;whiteSpace=wrap;html=1;shadow=0;fontFamily=Helvetica;fontSize=12;align=center;strokeWidth=1;spacing=6;spacingTop=-4;fillColor=#f5f5f5;strokeColor=#666666;fontColor=#333333;" vertex="1" parent="Ja9dmKskK8c7EPUnNLp3-39">
          <mxGeometry x="10" y="400" width="100" height="80" as="geometry" />
        </mxCell>
        <mxCell id="Ja9dmKskK8c7EPUnNLp3-3" value="Reject 403" style="rounded=1;whiteSpace=wrap;html=1;fontSize=12;glass=0;strokeWidth=1;shadow=0;fillColor=#f8cecc;strokeColor=#b85450;" vertex="1" parent="Ja9dmKskK8c7EPUnNLp3-39">
          <mxGeometry x="150" y="420" width="120" height="40" as="geometry" />
        </mxCell>
        <mxCell id="Ja9dmKskK8c7EPUnNLp3-24" value="" style="edgeStyle=orthogonalEdgeStyle;rounded=0;sketch=0;orthogonalLoop=1;jettySize=auto;html=1;fillColor=#f8cecc;strokeColor=#b85450;exitX=1;exitY=0.5;exitDx=0;exitDy=0;" edge="1" parent="Ja9dmKskK8c7EPUnNLp3-39" source="Ja9dmKskK8c7EPUnNLp3-2" target="Ja9dmKskK8c7EPUnNLp3-3">
          <mxGeometry relative="1" as="geometry">
            <mxPoint x="130" y="440" as="sourcePoint" />
          </mxGeometry>
        </mxCell>
        <mxCell id="Ja9dmKskK8c7EPUnNLp3-8" value="[COUNTER] TRIES" style="rounded=1;whiteSpace=wrap;html=1;fontSize=12;glass=0;strokeWidth=1;shadow=0;fillColor=#e1d5e7;strokeColor=#9673a6;" vertex="1" parent="Ja9dmKskK8c7EPUnNLp3-39">
          <mxGeometry x="150" y="330" width="120" height="40" as="geometry" />
        </mxCell>
        <mxCell id="Ja9dmKskK8c7EPUnNLp3-32" style="edgeStyle=orthogonalEdgeStyle;rounded=0;sketch=0;orthogonalLoop=1;jettySize=auto;html=1;exitX=1;exitY=0.5;exitDx=0;exitDy=0;entryX=1;entryY=0.5;entryDx=0;entryDy=0;fillColor=#e1d5e7;strokeColor=#9673a6;" edge="1" parent="Ja9dmKskK8c7EPUnNLp3-39" source="WIyWlLk6GJQsqaUBKTNV-11" target="Ja9dmKskK8c7EPUnNLp3-8">
          <mxGeometry relative="1" as="geometry">
            <mxPoint x="140" y="520.03" as="sourcePoint" />
            <Array as="points">
              <mxPoint x="290" y="520" />
              <mxPoint x="290" y="350" />
            </Array>
          </mxGeometry>
        </mxCell>
        <mxCell id="Ja9dmKskK8c7EPUnNLp3-22" value="" style="edgeStyle=orthogonalEdgeStyle;rounded=0;sketch=0;orthogonalLoop=1;jettySize=auto;html=1;fillColor=#e1d5e7;strokeColor=#9673a6;" edge="1" parent="Ja9dmKskK8c7EPUnNLp3-39" source="Ja9dmKskK8c7EPUnNLp3-3" target="Ja9dmKskK8c7EPUnNLp3-8">
          <mxGeometry relative="1" as="geometry" />
        </mxCell>
        <mxCell id="Ja9dmKskK8c7EPUnNLp3-30" value="" style="edgeStyle=orthogonalEdgeStyle;rounded=0;sketch=0;orthogonalLoop=1;jettySize=auto;html=1;fillColor=#d5e8d4;strokeColor=#82b366;" edge="1" parent="Ja9dmKskK8c7EPUnNLp3-39" source="Ja9dmKskK8c7EPUnNLp3-18" target="Ja9dmKskK8c7EPUnNLp3-2">
          <mxGeometry relative="1" as="geometry" />
        </mxCell>
        <mxCell id="Ja9dmKskK8c7EPUnNLp3-18" value="TRIES &amp;gt; 5?" style="rhombus;whiteSpace=wrap;html=1;shadow=0;fontFamily=Helvetica;fontSize=12;align=center;strokeWidth=1;spacing=6;spacingTop=-4;fillColor=#f5f5f5;strokeColor=#666666;fontColor=#333333;" vertex="1" parent="Ja9dmKskK8c7EPUnNLp3-39">
          <mxGeometry x="10" y="290" width="100" height="80" as="geometry" />
        </mxCell>
        <mxCell id="Ja9dmKskK8c7EPUnNLp3-25" value="" style="edgeStyle=orthogonalEdgeStyle;rounded=0;sketch=0;orthogonalLoop=1;jettySize=auto;html=1;fillColor=#d5e8d4;strokeColor=#82b366;" edge="1" parent="Ja9dmKskK8c7EPUnNLp3-39" source="WIyWlLk6GJQsqaUBKTNV-10" target="Ja9dmKskK8c7EPUnNLp3-18">
          <mxGeometry relative="1" as="geometry" />
        </mxCell>
        <mxCell id="Ja9dmKskK8c7EPUnNLp3-19" value="" style="edgeStyle=orthogonalEdgeStyle;rounded=0;sketch=0;orthogonalLoop=1;jettySize=auto;html=1;fillColor=#e1d5e7;strokeColor=#9673a6;entryX=1;entryY=1;entryDx=0;entryDy=0;" edge="1" parent="Ja9dmKskK8c7EPUnNLp3-39" source="Ja9dmKskK8c7EPUnNLp3-8" target="Ja9dmKskK8c7EPUnNLp3-18">
          <mxGeometry relative="1" as="geometry">
            <mxPoint x="130" y="330" as="targetPoint" />
          </mxGeometry>
        </mxCell>
        <mxCell id="Ja9dmKskK8c7EPUnNLp3-23" value="+1" style="text;html=1;align=center;verticalAlign=middle;resizable=0;points=[];autosize=1;strokeColor=#9673a6;fillColor=#e1d5e7;" vertex="1" parent="Ja9dmKskK8c7EPUnNLp3-39">
          <mxGeometry x="195" y="390" width="30" height="20" as="geometry" />
        </mxCell>
        <mxCell id="Ja9dmKskK8c7EPUnNLp3-33" value="= 0" style="text;html=1;align=center;verticalAlign=middle;resizable=0;points=[];autosize=1;strokeColor=#9673a6;fillColor=#e1d5e7;" vertex="1" parent="Ja9dmKskK8c7EPUnNLp3-39">
          <mxGeometry x="130" y="510.03" width="30" height="20" as="geometry" />
        </mxCell>
        <mxCell id="Ja9dmKskK8c7EPUnNLp3-36" value="" style="edgeStyle=orthogonalEdgeStyle;rounded=0;sketch=0;orthogonalLoop=1;jettySize=auto;html=1;fillColor=#f8cecc;strokeColor=#b85450;exitX=1;exitY=0;exitDx=0;exitDy=0;" edge="1" parent="Ja9dmKskK8c7EPUnNLp3-39" target="Ja9dmKskK8c7EPUnNLp3-37" source="Ja9dmKskK8c7EPUnNLp3-18">
          <mxGeometry relative="1" as="geometry">
            <mxPoint x="110" y="310" as="sourcePoint" />
          </mxGeometry>
        </mxCell>
        <mxCell id="Ja9dmKskK8c7EPUnNLp3-37" value="Reject 400" style="rounded=1;whiteSpace=wrap;html=1;fontSize=12;glass=0;strokeWidth=1;shadow=0;fillColor=#f8cecc;strokeColor=#b85450;" vertex="1" parent="Ja9dmKskK8c7EPUnNLp3-39">
          <mxGeometry x="150" y="290" width="120" height="40" as="geometry" />
        </mxCell>
      </root>
    </mxGraphModel>
  </diagram>
</mxfile>
